# xmcd
#
# Track frame offsets:
#	150
#	2692
#	18212
#	42485
#	61292
#	81725
#	103532
#	119870
#	136520
#	152110
#	154832
#	173215
#	188185
#
# Disc length: 2761 seconds
#
# Revision: 2
# Processed by: cddbd v1.5.2PL0 Copyright (c) Steve Scherf et al.
# Submitted via: EasyCDDAExtractor 6.2.0.3
#
DISCID=a90ac70d
DTITLE=Τσανακλίδου Τάνια (Κραουνάκης - Νικολακοπούλου) - Μαμά Γερνάω
DYEAR=1997
DGENRE=Έντεχνο
TTITLE0=Είσοδος...
TTITLE1=Μοίρες
TTITLE2=Πάμε κάπου
TTITLE3=Μαμά γερνάω
TTITLE4=Γυφτάκι
TTITLE5=Φίλοι
TTITLE6=Στρηπ-τηζ
TTITLE7=Η Σουλτάνα η Φωφώ
TTITLE8=Τσιφτετέλι
TTITLE9=
TTITLE10=Πάτωμα
TTITLE11=Ζελατίνα
TTITLE12=Υ.Γ.***
EXTD=
EXTT0=
EXTT1=
EXTT2=
EXTT3=
EXTT4=
EXTT5=
EXTT6=
EXTT7=
EXTT8=
EXTT9=
EXTT10=
EXTT11=
EXTT12=
PLAYORDER=
